<svg xmlns="http://www.w3.org/2000/svg" viewBox="0 0 900 460" font-family="'Courier New', monospace">
  <defs>
    <linearGradient id="bg3" x1="0%" y1="0%" x2="100%" y2="100%">
      <stop offset="0%" style="stop-color:#0d1117"/>
      <stop offset="100%" style="stop-color:#161b22"/>
    </linearGradient>
  </defs>

  <rect width="900" height="460" fill="url(#bg3)" rx="12"/>
  <rect width="900" height="460" fill="none" stroke="#30363d" stroke-width="1" rx="12"/>

  <!-- Title -->
  <text x="450" y="30" text-anchor="middle" fill="#e6edf3" font-size="16" font-weight="bold">PrinterReaper  Attack Coverage Matrix</text>
  <text x="450" y="48" text-anchor="middle" fill="#8b949e" font-size="11">Based on Müller et al., BlackHat USA 2017 + 20242025 CVEs</text>
  <line x1="40" y1="57" x2="860" y2="57" stroke="#21262d" stroke-width="1"/>

  <!-- Header row -->
  <rect x="40" y="62" width="180" height="30" rx="4" fill="#1c2128" stroke="#30363d" stroke-width="1"/>
  <text x="130" y="82" text-anchor="middle" fill="#8b949e" font-size="11" font-weight="bold">Attack Category</text>

  <!-- Column headers -->
  <rect x="225" y="62" width="76" height="30" rx="4" fill="#1c2128" stroke="#30363d" stroke-width="1"/>
  <text x="263" y="82" text-anchor="middle" fill="#388bfd" font-size="10" font-weight="bold">PS</text>

  <rect x="306" y="62" width="76" height="30" rx="4" fill="#1c2128" stroke="#30363d" stroke-width="1"/>
  <text x="344" y="82" text-anchor="middle" fill="#388bfd" font-size="10" font-weight="bold">PJL</text>

  <rect x="387" y="62" width="76" height="30" rx="4" fill="#1c2128" stroke="#30363d" stroke-width="1"/>
  <text x="425" y="82" text-anchor="middle" fill="#3fb950" font-size="10" font-weight="bold">IPP</text>

  <rect x="468" y="62" width="76" height="30" rx="4" fill="#1c2128" stroke="#30363d" stroke-width="1"/>
  <text x="506" y="82" text-anchor="middle" fill="#3fb950" font-size="10" font-weight="bold">SNMP</text>

  <rect x="549" y="62" width="76" height="30" rx="4" fill="#1c2128" stroke="#30363d" stroke-width="1"/>
  <text x="587" y="82" text-anchor="middle" fill="#d29922" font-size="10" font-weight="bold">HTTP</text>

  <rect x="630" y="62" width="76" height="30" rx="4" fill="#1c2128" stroke="#30363d" stroke-width="1"/>
  <text x="668" y="82" text-anchor="middle" fill="#d29922" font-size="10" font-weight="bold">FTP</text>

  <rect x="711" y="62" width="76" height="30" rx="4" fill="#1c2128" stroke="#30363d" stroke-width="1"/>
  <text x="749" y="82" text-anchor="middle" fill="#d29922" font-size="10" font-weight="bold">SMB</text>

  <rect x="792" y="62" width="68" height="30" rx="4" fill="#1c2128" stroke="#30363d" stroke-width="1"/>
  <text x="826" y="82" text-anchor="middle" fill="#8b949e" font-size="10" font-weight="bold">Vendors</text>

  <!-- Helper function for cells: filled = covered (red), partial = d29922, empty = #30363d -->
  <!-- ROW colors: full=#f85149 partial=#d29922 empty=#1c2128 -->

  <!-- Row 1: DoS  Infinite Loop -->
  <rect x="40" y="97" width="180" height="34" rx="4" fill="#1c2128" stroke="#21262d" stroke-width="1"/>
  <text x="50" y="112" fill="#f85149" font-size="10" font-weight="bold">DoS</text>
  <text x="50" y="126" fill="#8b949e" font-size="9">PS infinite loop / NVRAM</text>
  <rect x="225" y="97" width="76" height="34" rx="4" fill="#f85149" fill-opacity="0.2" stroke="#f85149" stroke-width="1"/>
  <text x="263" y="119" text-anchor="middle" fill="#f85149" font-size="16"></text>
  <rect x="306" y="97" width="76" height="34" rx="4" fill="#f85149" fill-opacity="0.2" stroke="#f85149" stroke-width="1"/>
  <text x="344" y="119" text-anchor="middle" fill="#f85149" font-size="16"></text>
  <rect x="387" y="97" width="76" height="34" rx="4" fill="#f85149" fill-opacity="0.2" stroke="#f85149" stroke-width="1"/>
  <text x="425" y="119" text-anchor="middle" fill="#f85149" font-size="16"></text>
  <rect x="468" y="97" width="76" height="34" rx="4" fill="#1c2128" stroke="#30363d" stroke-width="1"/>
  <text x="506" y="119" text-anchor="middle" fill="#30363d" font-size="16"></text>
  <rect x="549" y="97" width="76" height="34" rx="4" fill="#1c2128" stroke="#30363d" stroke-width="1"/>
  <text x="587" y="119" text-anchor="middle" fill="#30363d" font-size="16"></text>
  <rect x="630" y="97" width="76" height="34" rx="4" fill="#1c2128" stroke="#30363d" stroke-width="1"/>
  <text x="668" y="119" text-anchor="middle" fill="#30363d" font-size="16"></text>
  <rect x="711" y="97" width="76" height="34" rx="4" fill="#1c2128" stroke="#30363d" stroke-width="1"/>
  <text x="749" y="119" text-anchor="middle" fill="#30363d" font-size="16"></text>
  <rect x="792" y="97" width="68" height="34" rx="4" fill="#1c2128" stroke="#30363d" stroke-width="1"/>
  <text x="826" y="119" text-anchor="middle" fill="#8b949e" font-size="10">20</text>

  <!-- Row 2: Protection Bypass -->
  <rect x="40" y="136" width="180" height="34" rx="4" fill="#1c2128" stroke="#21262d" stroke-width="1"/>
  <text x="50" y="151" fill="#d29922" font-size="10" font-weight="bold">Protection Bypass</text>
  <text x="50" y="165" fill="#8b949e" font-size="9">factory reset · auth · exitserver</text>
  <rect x="225" y="136" width="76" height="34" rx="4" fill="#f85149" fill-opacity="0.2" stroke="#f85149" stroke-width="1"/>
  <text x="263" y="158" text-anchor="middle" fill="#f85149" font-size="16"></text>
  <rect x="306" y="136" width="76" height="34" rx="4" fill="#f85149" fill-opacity="0.2" stroke="#f85149" stroke-width="1"/>
  <text x="344" y="158" text-anchor="middle" fill="#f85149" font-size="16"></text>
  <rect x="387" y="136" width="76" height="34" rx="4" fill="#1c2128" stroke="#30363d" stroke-width="1"/>
  <text x="425" y="158" text-anchor="middle" fill="#30363d" font-size="16"></text>
  <rect x="468" y="136" width="76" height="34" rx="4" fill="#f85149" fill-opacity="0.2" stroke="#f85149" stroke-width="1"/>
  <text x="506" y="158" text-anchor="middle" fill="#f85149" font-size="16"></text>
  <rect x="549" y="136" width="76" height="34" rx="4" fill="#d29922" fill-opacity="0.2" stroke="#d29922" stroke-width="1"/>
  <text x="587" y="158" text-anchor="middle" fill="#d29922" font-size="16">~</text>
  <rect x="630" y="136" width="76" height="34" rx="4" fill="#1c2128" stroke="#30363d" stroke-width="1"/>
  <text x="668" y="158" text-anchor="middle" fill="#30363d" font-size="16"></text>
  <rect x="711" y="136" width="76" height="34" rx="4" fill="#1c2128" stroke="#30363d" stroke-width="1"/>
  <text x="749" y="158" text-anchor="middle" fill="#30363d" font-size="16"></text>
  <rect x="792" y="136" width="68" height="34" rx="4" fill="#1c2128" stroke="#30363d" stroke-width="1"/>
  <text x="826" y="158" text-anchor="middle" fill="#8b949e" font-size="10">11</text>

  <!-- Row 3: Print Job Manipulation -->
  <rect x="40" y="175" width="180" height="34" rx="4" fill="#1c2128" stroke="#21262d" stroke-width="1"/>
  <text x="50" y="190" fill="#d29922" font-size="10" font-weight="bold">Job Manipulation</text>
  <text x="50" y="204" fill="#8b949e" font-size="9">overlay · replace · capture</text>
  <rect x="225" y="175" width="76" height="34" rx="4" fill="#f85149" fill-opacity="0.2" stroke="#f85149" stroke-width="1"/>
  <text x="263" y="197" text-anchor="middle" fill="#f85149" font-size="16"></text>
  <rect x="306" y="175" width="76" height="34" rx="4" fill="#f85149" fill-opacity="0.2" stroke="#f85149" stroke-width="1"/>
  <text x="344" y="197" text-anchor="middle" fill="#f85149" font-size="16"></text>
  <rect x="387" y="175" width="76" height="34" rx="4" fill="#d29922" fill-opacity="0.2" stroke="#d29922" stroke-width="1"/>
  <text x="425" y="197" text-anchor="middle" fill="#d29922" font-size="16">~</text>
  <rect x="468" y="175" width="76" height="34" rx="4" fill="#1c2128" stroke="#30363d" stroke-width="1"/>
  <text x="506" y="197" text-anchor="middle" fill="#30363d" font-size="16"></text>
  <rect x="549" y="175" width="76" height="34" rx="4" fill="#1c2128" stroke="#30363d" stroke-width="1"/>
  <text x="587" y="197" text-anchor="middle" fill="#30363d" font-size="16"></text>
  <rect x="630" y="175" width="76" height="34" rx="4" fill="#1c2128" stroke="#30363d" stroke-width="1"/>
  <text x="668" y="197" text-anchor="middle" fill="#30363d" font-size="16"></text>
  <rect x="711" y="175" width="76" height="34" rx="4" fill="#d29922" fill-opacity="0.2" stroke="#d29922" stroke-width="1"/>
  <text x="749" y="197" text-anchor="middle" fill="#d29922" font-size="16">~</text>
  <rect x="792" y="175" width="68" height="34" rx="4" fill="#1c2128" stroke="#30363d" stroke-width="1"/>
  <text x="826" y="197" text-anchor="middle" fill="#8b949e" font-size="10">14</text>

  <!-- Row 4: Info Disclosure -->
  <rect x="40" y="214" width="180" height="34" rx="4" fill="#1c2128" stroke="#21262d" stroke-width="1"/>
  <text x="50" y="229" fill="#388bfd" font-size="10" font-weight="bold">Info Disclosure</text>
  <text x="50" y="243" fill="#8b949e" font-size="9">FS · NVRAM · creds · jobs</text>
  <rect x="225" y="214" width="76" height="34" rx="4" fill="#f85149" fill-opacity="0.2" stroke="#f85149" stroke-width="1"/>
  <text x="263" y="236" text-anchor="middle" fill="#f85149" font-size="16"></text>
  <rect x="306" y="214" width="76" height="34" rx="4" fill="#f85149" fill-opacity="0.2" stroke="#f85149" stroke-width="1"/>
  <text x="344" y="236" text-anchor="middle" fill="#f85149" font-size="16"></text>
  <rect x="387" y="214" width="76" height="34" rx="4" fill="#f85149" fill-opacity="0.2" stroke="#f85149" stroke-width="1"/>
  <text x="425" y="236" text-anchor="middle" fill="#f85149" font-size="16"></text>
  <rect x="468" y="214" width="76" height="34" rx="4" fill="#f85149" fill-opacity="0.2" stroke="#f85149" stroke-width="1"/>
  <text x="506" y="236" text-anchor="middle" fill="#f85149" font-size="16"></text>
  <rect x="549" y="214" width="76" height="34" rx="4" fill="#f85149" fill-opacity="0.2" stroke="#f85149" stroke-width="1"/>
  <text x="587" y="236" text-anchor="middle" fill="#f85149" font-size="16"></text>
  <rect x="630" y="214" width="76" height="34" rx="4" fill="#d29922" fill-opacity="0.2" stroke="#d29922" stroke-width="1"/>
  <text x="668" y="236" text-anchor="middle" fill="#d29922" font-size="16">~</text>
  <rect x="711" y="214" width="76" height="34" rx="4" fill="#d29922" fill-opacity="0.2" stroke="#d29922" stroke-width="1"/>
  <text x="749" y="236" text-anchor="middle" fill="#d29922" font-size="16">~</text>
  <rect x="792" y="214" width="68" height="34" rx="4" fill="#1c2128" stroke="#30363d" stroke-width="1"/>
  <text x="826" y="236" text-anchor="middle" fill="#8b949e" font-size="10">20</text>

  <!-- Row 5: Credential Brute Force -->
  <rect x="40" y="253" width="180" height="34" rx="4" fill="#1c2128" stroke="#21262d" stroke-width="1"/>
  <text x="50" y="268" fill="#3fb950" font-size="10" font-weight="bold">Credential Attack</text>
  <text x="50" y="282" fill="#8b949e" font-size="9">BF · default creds · wordlist</text>
  <rect x="225" y="253" width="76" height="34" rx="4" fill="#1c2128" stroke="#30363d" stroke-width="1"/>
  <text x="263" y="275" text-anchor="middle" fill="#30363d" font-size="16"></text>
  <rect x="306" y="253" width="76" height="34" rx="4" fill="#1c2128" stroke="#30363d" stroke-width="1"/>
  <text x="344" y="275" text-anchor="middle" fill="#30363d" font-size="16"></text>
  <rect x="387" y="253" width="76" height="34" rx="4" fill="#1c2128" stroke="#30363d" stroke-width="1"/>
  <text x="425" y="275" text-anchor="middle" fill="#30363d" font-size="16"></text>
  <rect x="468" y="253" width="76" height="34" rx="4" fill="#f85149" fill-opacity="0.2" stroke="#f85149" stroke-width="1"/>
  <text x="506" y="275" text-anchor="middle" fill="#f85149" font-size="16"></text>
  <rect x="549" y="253" width="76" height="34" rx="4" fill="#f85149" fill-opacity="0.2" stroke="#f85149" stroke-width="1"/>
  <text x="587" y="275" text-anchor="middle" fill="#f85149" font-size="16"></text>
  <rect x="630" y="253" width="76" height="34" rx="4" fill="#f85149" fill-opacity="0.2" stroke="#f85149" stroke-width="1"/>
  <text x="668" y="275" text-anchor="middle" fill="#f85149" font-size="16"></text>
  <rect x="711" y="253" width="76" height="34" rx="4" fill="#1c2128" stroke="#30363d" stroke-width="1"/>
  <text x="749" y="275" text-anchor="middle" fill="#30363d" font-size="16"></text>
  <rect x="792" y="253" width="68" height="34" rx="4" fill="#1c2128" stroke="#30363d" stroke-width="1"/>
  <text x="826" y="275" text-anchor="middle" fill="#8b949e" font-size="10">15+</text>

  <!-- Row 6: Lateral Movement -->
  <rect x="40" y="292" width="180" height="34" rx="4" fill="#1c2128" stroke="#21262d" stroke-width="1"/>
  <text x="50" y="307" fill="#3fb950" font-size="10" font-weight="bold">Lateral Movement</text>
  <text x="50" y="321" fill="#8b949e" font-size="9">SSRF · LDAP hash · network map</text>
  <rect x="225" y="292" width="76" height="34" rx="4" fill="#1c2128" stroke="#30363d" stroke-width="1"/>
  <text x="263" y="314" text-anchor="middle" fill="#30363d" font-size="16"></text>
  <rect x="306" y="292" width="76" height="34" rx="4" fill="#1c2128" stroke="#30363d" stroke-width="1"/>
  <text x="344" y="314" text-anchor="middle" fill="#30363d" font-size="16"></text>
  <rect x="387" y="292" width="76" height="34" rx="4" fill="#f85149" fill-opacity="0.2" stroke="#f85149" stroke-width="1"/>
  <text x="425" y="314" text-anchor="middle" fill="#f85149" font-size="16"></text>
  <rect x="468" y="292" width="76" height="34" rx="4" fill="#f85149" fill-opacity="0.2" stroke="#f85149" stroke-width="1"/>
  <text x="506" y="314" text-anchor="middle" fill="#f85149" font-size="16"></text>
  <rect x="549" y="292" width="76" height="34" rx="4" fill="#f85149" fill-opacity="0.2" stroke="#f85149" stroke-width="1"/>
  <text x="587" y="314" text-anchor="middle" fill="#f85149" font-size="16"></text>
  <rect x="630" y="292" width="76" height="34" rx="4" fill="#1c2128" stroke="#30363d" stroke-width="1"/>
  <text x="668" y="314" text-anchor="middle" fill="#30363d" font-size="16"></text>
  <rect x="711" y="292" width="76" height="34" rx="4" fill="#d29922" fill-opacity="0.2" stroke="#d29922" stroke-width="1"/>
  <text x="749" y="314" text-anchor="middle" fill="#d29922" font-size="16">~</text>
  <rect x="792" y="292" width="68" height="34" rx="4" fill="#1c2128" stroke="#30363d" stroke-width="1"/>
  <text x="826" y="314" text-anchor="middle" fill="#8b949e" font-size="10">all</text>

  <!-- Legend row -->
  <rect x="40" y="340" width="820" height="38" rx="6" fill="#1c2128" stroke="#30363d" stroke-width="1"/>
  <rect x="60" y="352" width="14" height="14" rx="3" fill="#f85149" fill-opacity="0.25" stroke="#f85149" stroke-width="1"/>
  <text x="82" y="364" fill="#8b949e" font-size="10"> Fully supported</text>
  <rect x="220" y="352" width="14" height="14" rx="3" fill="#d29922" fill-opacity="0.25" stroke="#d29922" stroke-width="1"/>
  <text x="242" y="364" fill="#8b949e" font-size="10">~ Partial / conditional</text>
  <rect x="420" y="352" width="14" height="14" rx="3" fill="#1c2128" stroke="#30363d" stroke-width="1"/>
  <text x="442" y="364" fill="#8b949e" font-size="10"> Not applicable</text>
  <text x="855" y="364" text-anchor="end" fill="#6e7681" font-size="9">PrinterReaper v3.7.0 · 39+ exploit modules</text>

  <!-- Vendor count row -->
  <rect x="40" y="392" width="820" height="52" rx="6" fill="#1c2128" stroke="#21262d" stroke-width="1"/>
  <text x="60" y="412" fill="#8b949e" font-size="10">Tested vendors:</text>
  <text x="60" y="430" fill="#6e7681" font-size="9">HP · Brother · Lexmark · Kyocera · Dell · Samsung · Konica Minolta · OKI · Ricoh · Xerox · Epson · Canon · Sharp · Toshiba · Panasonic · Fujifilm · Zebra · Axis · IBM · Minolta QMS</text>
</svg>
